<?xml version="1.0" encoding="UTF-8"?>
<!-- AI Pixel Scaler app icon Neural Grid -->
<svg xmlns="http://www.w3.org/2000/svg" width="256" height="256" viewBox="0 0 100 100" fill="none">
  <rect width="100" height="100" fill="#000000" rx="18"/>
  <!-- Outer frame corners -->
  <path d="M10 30V15C10 12.2386 12.2386 10 15 10H30" stroke="#ffffff" stroke-width="4" stroke-linecap="round"/>
  <path d="M70 10H85C87.7614 10 90 12.2386 90 15V30" stroke="#ffffff" stroke-width="4" stroke-linecap="round"/>
  <path d="M90 70V85C90 87.7614 87.7614 90 85 90H70" stroke="#ffffff" stroke-width="4" stroke-linecap="round"/>
  <path d="M30 90H15C12.2386 90 10 87.7614 10 85V70" stroke="#ffffff" stroke-width="4" stroke-linecap="round"/>
  <!-- AI core -->
  <circle cx="50" cy="50" r="12" fill="url(#paint0_linear)"/>
  <!-- Pivot cross -->
  <path d="M50 25V35" stroke="#00F2FF" stroke-width="3" stroke-linecap="round" opacity="0.6"/>
  <path d="M50 65V75" stroke="#00F2FF" stroke-width="3" stroke-linecap="round" opacity="0.6"/>
  <path d="M25 50H35" stroke="#00F2FF" stroke-width="3" stroke-linecap="round" opacity="0.6"/>
  <path d="M65 50H75" stroke="#00F2FF" stroke-width="3" stroke-linecap="round" opacity="0.6"/>
  <!-- Pixels -->
  <rect x="22" y="22" width="6" height="6" fill="#8B5CF6" rx="1" opacity="0.8"/>
  <rect x="72" y="72" width="6" height="6" fill="#8B5CF6" rx="1" opacity="0.8"/>
  <rect x="72" y="22" width="6" height="6" fill="#00F2FF" rx="1" opacity="0.4"/>
  <rect x="22" y="72" width="6" height="6" fill="#00F2FF" rx="1" opacity="0.4"/>
  <defs>
    <linearGradient id="paint0_linear" x1="50" y1="38" x2="50" y2="62" gradientUnits="userSpaceOnUse">
      <stop stop-color="#00F2FF"/>
      <stop offset="1" stop-color="#8B5CF6"/>
    </linearGradient>
  </defs>
</svg>
